<svg xmlns="http://www.w3.org/2000/svg" width="512" height="512" viewBox="0 0 512 512" fill="none">
  <defs>
    <linearGradient id="gold" x1="128" y1="120" x2="384" y2="392" gradientUnits="userSpaceOnUse">
      <stop stop-color="#FFD54A"/>
      <stop offset="1" stop-color="#F59E0B"/>
    </linearGradient>
    <linearGradient id="goldSoft" x1="164" y1="176" x2="348" y2="352" gradientUnits="userSpaceOnUse">
      <stop stop-color="#FFF3B0"/>
      <stop offset="1" stop-color="#FCD34D"/>
    </linearGradient>
    <linearGradient id="amber" x1="112" y1="112" x2="400" y2="400" gradientUnits="userSpaceOnUse">
      <stop stop-color="#F59E0B"/>
      <stop offset="1" stop-color="#B45309"/>
    </linearGradient>
  </defs>

  <path d="M136 262V210C136 143.726 189.726 90 256 90C322.274 90 376 143.726 376 210V262"
        stroke="url(#amber)" stroke-width="28" stroke-linecap="round" stroke-linejoin="round"/>

  <rect x="114" y="216" width="56" height="120" rx="28" fill="url(#gold)" stroke="#7C2D12" stroke-width="10"/>
  <rect x="342" y="216" width="56" height="120" rx="28" fill="url(#gold)" stroke="#7C2D12" stroke-width="10"/>

  <rect x="132" y="236" width="20" height="80" rx="10" fill="#FFF7CC" opacity="0.9"/>
  <rect x="360" y="236" width="20" height="80" rx="10" fill="#FFF7CC" opacity="0.9"/>

  <path d="M156 356C188 346 222 346 256 360C290 346 324 346 356 356V222C321 212 287 215 256 238C225 215 191 212 156 222V356Z"
        fill="url(#gold)" stroke="#7C2D12" stroke-width="10" stroke-linejoin="round"/>

  <path d="M174 338V236C202 230 225 233 248 248V340C223 327 199 326 174 338Z"
        fill="url(#goldSoft)"/>

  <path d="M338 338V236C310 230 287 233 264 248V340C289 327 313 326 338 338Z"
        fill="url(#goldSoft)"/>

  <path d="M256 238V359" stroke="#B45309" stroke-width="8" stroke-linecap="round"/>

  <path d="M196 262C212 263 226 267 238 274" stroke="#F59E0B" stroke-width="6" stroke-linecap="round"/>
  <path d="M196 286C212 287 226 291 238 298" stroke="#F59E0B" stroke-width="6" stroke-linecap="round"/>
  <path d="M316 262C300 263 286 267 274 274" stroke="#F59E0B" stroke-width="6" stroke-linecap="round"/>
  <path d="M316 286C300 287 286 291 274 298" stroke="#F59E0B" stroke-width="6" stroke-linecap="round"/>

  <path d="M174 338C200 330 226 334 256 349C286 334 312 330 338 338" stroke="#B45309" stroke-width="8" stroke-linecap="round"/>
</svg>
